<svg xmlns="http://www.w3.org/2000/svg" width="180" height="36" viewBox="0 0 180 36" fill="none">
  <path d="M14.4 28L11.04 21.44H4.48L1.12 28H0L8.72 8H6.8L15.52 28H14.4ZM7.76 11.04L4.96 20.48H10.56L7.76 11.04Z" fill="white"/>
  <path d="M29.4331 28H16.6731V8H17.7931V27.04H29.4331V28Z" fill="white"/>
  <path d="M53.8256 8H54.9456V28H53.8256V19.04H42.1856V28H41.0656V8H42.1856V18.08H53.8256V8Z" fill="white"/>
  <path d="M68.3081 28L64.9481 21.44H58.3881L55.0281 28H53.9081L62.6281 8H60.7081L69.4281 28H68.3081ZM61.6681 11.04L58.8681 20.48H64.4681L61.6681 11.04Z" fill="white"/>
  <path d="M76.7006 28H75.5806V8H83.2606C85.8473 8 87.8473 8.66667 89.2606 10C90.6739 11.3333 91.3806 13.0667 91.3806 15.2C91.3806 17.3333 90.6739 19.0667 89.2606 20.4C87.8473 21.7333 85.8473 22.4 83.2606 22.4H76.7006V28ZM76.7006 21.44H83.2606C85.4606 21.44 87.1673 20.8933 88.3806 19.8C89.5939 18.7067 90.2006 17.1733 90.2006 15.2C90.2006 13.2267 89.5939 11.6933 88.3806 10.6C87.1673 9.50667 85.4606 8.96 83.2606 8.96H76.7006V21.44Z" fill="white"/>
  <path d="M110.044 8H111.164V28H110.044V19.04H98.4044V28H97.2844V8H98.4044V18.08H110.044V8Z" fill="white"/>
  <path d="M120.887 28H119.767V8H120.887V28Z" fill="white"/>
  <path d="M139.069 28H126.309V8H127.429V27.04H139.069V28Z" fill="white"/>
  <path d="M146.701 28H145.581V8H146.701V28Z" fill="white"/>
  <path d="M157.873 28.32C156.513 28.32 155.3 28.0133 154.233 27.4C153.166 26.7867 152.313 25.9067 151.673 24.76C151.06 23.5867 150.753 22.2 150.753 20.6V15.4C150.753 13.8 151.06 12.4267 151.673 11.28C152.313 10.1067 153.166 9.21333 154.233 8.6C155.3 7.98667 156.513 7.68 157.873 7.68C159.66 7.68 161.14 8.13333 162.313 9.04C163.513 9.92 164.326 11.12 164.753 12.64H163.553C163.126 11.3867 162.433 10.4 161.473 9.68C160.513 8.96 159.3 8.6 157.833 8.6C156.673 8.6 155.646 8.86667 154.753 9.4C153.86 9.93333 153.146 10.6933 152.593 11.68C152.066 12.6667 151.793 13.8667 151.793 15.28V20.72C151.793 22.1333 152.066 23.3333 152.593 24.32C153.146 25.3067 153.86 26.0667 154.753 26.6C155.646 27.1333 156.673 27.4 157.833 27.4C159.3 27.4 160.513 27.04 161.473 26.32C162.433 25.5733 163.126 24.5733 163.553 23.32H164.753C164.326 24.84 163.513 26.04 162.313 26.92C161.14 27.8533 159.66 28.32 157.873 28.32Z" fill="white"/>
  <path d="M170.824 28H167.864V8H173.384C175.224 8 176.651 8.46667 177.664 9.4C178.677 10.3333 179.184 11.72 179.184 13.56C179.184 15.4 178.677 16.7867 177.664 17.72C176.651 18.6533 175.224 19.12 173.384 19.12H170.824V28ZM170.824 10.56V16.56H173.384C174.397 16.56 175.171 16.28 175.704 15.72C176.237 15.16 176.504 14.4533 176.504 13.6C176.504 12.72 176.224 11.9867 175.664 11.4C175.131 10.84 174.371 10.56 173.384 10.56H170.824Z" fill="white"/>
</svg>